# xmcd
#
# Track frame offsets: 
#        150
#        26696
#        45648
#        69538
#        91340
#
# Disc length: 1483 seconds
#
# Revision: 1
# Processed by: cddbd v1.5.2PL0 Copyright (c) Steve Scherf et al.
# Submitted via: ExactAudioCopyFreeDBPlugin 1.0
#
DISCID=3a05c905
DTITLE=Harris Jayaraj / Ghajini 
DYEAR=2005
DGENRE=Soundtrack
TTITLE0=Karthik / Oru Maalai
TTITLE1=Nakul & Mathanji / X-Machi
TTITLE2=Siram Parthasarathy & Bombay Jayashree / Suttum Vizhi
TTITLE3=Anupama / Rahatulla
TTITLE4=Shankar Mahadevan & Sujatha Mohan / Rangola
EXTD=
EXTT0=
EXTT1=
EXTT2=
EXTT3=
EXTT4=
PLAYORDER=
